<svg width="36" height="36" viewBox="0 0 36 36" fill="none" xmlns="http://www.w3.org/2000/svg">
<path opacity="0.21" d="M35.8 17.9C35.8 21.4403 34.7502 24.9011 32.7833 27.8447C30.8164 30.7883 28.0208 33.0826 24.75 34.4374C21.4792 35.7923 17.8802 36.1467 14.4079 35.4561C10.9356 34.7654 7.74616 33.0606 5.2428 30.5572C2.73944 28.0539 1.03463 24.8644 0.343952 21.3921C-0.346724 17.9199 0.00775576 14.3208 1.36256 11.05C2.71737 7.77917 5.01166 4.98357 7.9553 3.01669C10.8989 1.04982 14.3597 0 17.9 0C22.6474 0 27.2003 1.88589 30.5572 5.24279C33.9141 8.59969 35.8 13.1526 35.8 17.9Z" fill="#10A5E8"/>
<path d="M30.9442 16.0859H5.16016V30.4749C6.09509 31.4229 7.13245 32.2641 8.25315 32.9829H27.5532C28.7952 32.186 29.9344 31.2392 30.9452 30.1639L30.9442 16.0859Z" fill="#F2F2F2"/>
<path d="M13.951 21.1895H8.23899C8.08729 21.1895 7.9418 21.2497 7.83453 21.357C7.72726 21.4643 7.66699 21.6097 7.66699 21.7615V32.5895C7.82499 32.7001 7.98466 32.8081 8.146 32.9135H14.526V21.7615C14.526 21.6861 14.5111 21.6115 14.4822 21.5419C14.4532 21.4723 14.4108 21.4091 14.3574 21.3559C14.304 21.3028 14.2406 21.2607 14.1708 21.2321C14.1011 21.2036 14.0264 21.1891 13.951 21.1895Z" fill="#965028"/>
<path d="M7.66699 21.7595V32.5875C7.82499 32.6982 7.98466 32.8062 8.146 32.9115H9.06499V21.7595C9.06499 21.6078 9.12526 21.4623 9.23253 21.355C9.3398 21.2478 9.48529 21.1875 9.63699 21.1875H8.23699C8.08563 21.188 7.94066 21.2485 7.83382 21.3557C7.72699 21.463 7.66699 21.6081 7.66699 21.7595Z" fill="#823F1E"/>
<path d="M27.8642 29.9724H17.3992C17.2475 29.9724 17.102 29.9122 16.9947 29.8049C16.8874 29.6976 16.8271 29.5522 16.8271 29.4005V21.7614C16.8271 21.6097 16.8874 21.4643 16.9947 21.357C17.102 21.2497 17.2475 21.1895 17.3992 21.1895H27.8631C28.0148 21.1895 28.1603 21.2497 28.2676 21.357C28.3749 21.4643 28.4352 21.6097 28.4352 21.7614V29.4005C28.4352 29.552 28.375 29.6973 28.268 29.8046C28.1609 29.9118 28.0157 29.9722 27.8642 29.9724Z" fill="#10A5E8"/>
<path d="M18.2271 29.3985V21.7595C18.2271 21.6078 18.2874 21.4623 18.3947 21.355C18.502 21.2478 18.6474 21.1875 18.7991 21.1875H17.3992C17.2475 21.1875 17.102 21.2478 16.9947 21.355C16.8874 21.4623 16.8271 21.6078 16.8271 21.7595V29.3985C16.8271 29.5502 16.8874 29.6957 16.9947 29.803C17.102 29.9102 17.2475 29.9705 17.3992 29.9705H18.7991C18.6474 29.9705 18.502 29.9102 18.3947 29.803C18.2874 29.6957 18.2271 29.5502 18.2271 29.3985Z" fill="#85E8E8"/>
<path d="M25.9448 29.9724H23.7978L20.6538 21.1895H22.7978L25.9448 29.9724Z" fill="#D0FBFD"/>
<path d="M27.3432 29.9724H26.5952L23.4512 21.1895H24.1972L27.3432 29.9724Z" fill="#D0FBFD"/>
<path d="M13.6829 27.2494C13.6829 27.4337 13.6282 27.6139 13.5258 27.7672C13.4234 27.9204 13.2778 28.0399 13.1075 28.1104C12.9372 28.181 12.7498 28.1994 12.569 28.1635C12.3882 28.1275 12.2222 28.0388 12.0918 27.9084C11.9615 27.7781 11.8727 27.612 11.8368 27.4312C11.8008 27.2504 11.8193 27.063 11.8898 26.8927C11.9603 26.7224 12.0798 26.5769 12.2331 26.4745C12.3863 26.372 12.5665 26.3174 12.7508 26.3174C12.998 26.3174 13.2351 26.4156 13.4099 26.5904C13.5847 26.7651 13.6829 27.0022 13.6829 27.2494Z" fill="#FFDC64"/>
<path d="M12.3771 27.2489C12.3771 27.0504 12.4404 26.857 12.5578 26.697C12.6753 26.5369 12.8407 26.4185 13.0301 26.3589C12.8905 26.3153 12.7427 26.3051 12.5984 26.3291C12.4542 26.3532 12.3177 26.4108 12.1999 26.4974C12.082 26.584 11.9863 26.6971 11.9202 26.8276C11.8542 26.958 11.8198 27.1022 11.8198 27.2484C11.8198 27.3946 11.8542 27.5388 11.9202 27.6692C11.9863 27.7997 12.082 27.9128 12.1999 27.9994C12.3177 28.086 12.4542 28.1436 12.5984 28.1677C12.7427 28.1918 12.8905 28.1816 13.0301 28.1379C12.8409 28.0784 12.6755 27.9601 12.5581 27.8002C12.4407 27.6404 12.3773 27.4473 12.3771 27.2489Z" fill="#FAC855"/>
<path d="M5.15918 30.4749C5.60311 30.9246 6.07042 31.3505 6.55917 31.7509V16.0859H5.15918V30.4749Z" fill="#D1D1D1"/>
<path d="M5.16016 20.0639C5.7716 20.064 6.37588 19.9324 6.932 19.6783C7.48811 19.4241 7.98304 19.0533 8.38316 18.5909C8.78334 19.0532 9.27828 19.4239 9.83438 19.678C10.3905 19.9322 10.9947 20.0637 11.6062 20.0637C12.2176 20.0637 12.8218 19.9322 13.3779 19.678C13.934 19.4239 14.429 19.0532 14.8292 18.5909C15.2293 19.0532 15.7243 19.4239 16.2804 19.678C16.8365 19.9322 17.4407 20.0637 18.0522 20.0637C18.6636 20.0637 19.2678 19.9322 19.8239 19.678C20.38 19.4239 20.875 19.0532 21.2752 18.5909C21.6753 19.0532 22.1703 19.4239 22.7264 19.678C23.2825 19.9322 23.8867 20.0637 24.4982 20.0637C25.1096 20.0637 25.7138 19.9322 26.2699 19.678C26.826 19.4239 27.321 19.0532 27.7212 18.5909C28.1213 19.0533 28.6162 19.4241 29.1723 19.6783C29.7284 19.9324 30.3327 20.064 30.9442 20.0639V16.0869H5.16016V20.0639Z" fill="#D1D1D1"/>
<path d="M5.15903 19.0149C4.73578 19.0149 4.31668 18.9315 3.92565 18.7695C3.53461 18.6076 3.17931 18.3702 2.88003 18.0709C2.58075 17.7716 2.34334 17.4163 2.18137 17.0253C2.0194 16.6342 1.93604 16.2151 1.93604 15.7919V14.3379H8.38203V15.7919C8.38203 16.2151 8.29867 16.6342 8.1367 17.0253C7.97473 17.4163 7.73732 17.7716 7.43804 18.0709C7.13876 18.3702 6.78346 18.6076 6.39243 18.7695C6.00139 18.9315 5.58229 19.0149 5.15903 19.0149Z" fill="#59BB05"/>
<path d="M3.33492 15.7919V14.3379H1.94092V15.7919C1.94096 16.2745 2.04938 16.7509 2.25817 17.186C2.46696 17.6211 2.77079 18.0037 3.14724 18.3057C3.52369 18.6077 3.96315 18.8212 4.43318 18.9307C4.90321 19.0401 5.39181 19.0425 5.86292 18.9379C5.14642 18.7795 4.5054 18.3814 4.04576 17.8094C3.58613 17.2374 3.33537 16.5257 3.33492 15.7919Z" fill="#428E01"/>
<path d="M11.6048 19.0149C11.1816 19.0149 10.7625 18.9315 10.3714 18.7695C9.98041 18.6076 9.62511 18.3702 9.32583 18.0709C9.02655 17.7716 8.78914 17.4163 8.62717 17.0253C8.4652 16.6342 8.38184 16.2151 8.38184 15.7919V14.3379H14.8278V15.7919C14.8278 16.2151 14.7445 16.6342 14.5825 17.0253C14.4205 17.4163 14.1831 17.7716 13.8838 18.0709C13.5846 18.3702 13.2293 18.6076 12.8382 18.7695C12.4472 18.9315 12.0281 19.0149 11.6048 19.0149Z" fill="#FFD62A"/>
<path d="M9.78183 15.7919V14.3379H8.38184V15.7919C8.38188 16.2745 8.49029 16.7509 8.69908 17.186C8.90787 17.6211 9.21171 18.0037 9.58816 18.3057C9.96461 18.6077 10.4041 18.8212 10.8741 18.9307C11.3441 19.0401 11.8327 19.0425 12.3038 18.9379C11.5884 18.7783 10.9488 18.3797 10.4903 17.8078C10.0319 17.2359 9.78198 16.5249 9.78183 15.7919Z" fill="#D9B311"/>
<path d="M18.0511 19.0149C17.6279 19.0149 17.2088 18.9315 16.8177 18.7695C16.4267 18.6076 16.0714 18.3702 15.7721 18.0709C15.4728 17.7716 15.2354 17.4163 15.0735 17.0253C14.9115 16.6342 14.8281 16.2151 14.8281 15.7919V14.3379H21.2771V15.7919C21.2771 16.2151 21.1938 16.6342 21.0318 17.0253C20.8698 17.4163 20.6324 17.7716 20.3331 18.0709C20.0338 18.3702 19.6786 18.6076 19.2875 18.7695C18.8965 18.9315 18.4774 19.0149 18.0541 19.0149H18.0511Z" fill="#59BB05"/>
<path d="M16.2281 15.7919V14.3379H14.8281V15.7919C14.8282 16.2745 14.9366 16.7509 15.1454 17.186C15.3542 17.6211 15.658 18.0037 16.0345 18.3057C16.4109 18.6077 16.8504 18.8212 17.3204 18.9307C17.7904 19.0401 18.279 19.0425 18.7501 18.9379C18.0347 18.7783 17.3951 18.3797 16.9366 17.8078C16.4782 17.2359 16.2283 16.5249 16.2281 15.7919Z" fill="#428E01"/>
<path d="M24.4969 19.0149C24.0737 19.0149 23.6546 18.9315 23.2635 18.7695C22.8725 18.6076 22.5172 18.3702 22.2179 18.0709C21.9186 17.7716 21.6812 17.4163 21.5193 17.0253C21.3573 16.6342 21.2739 16.2151 21.2739 15.7919V14.3379H27.7199V15.7919C27.7199 16.2151 27.6365 16.6342 27.4746 17.0253C27.3126 17.4163 27.0752 17.7716 26.7759 18.0709C26.4766 18.3702 26.1213 18.6076 25.7303 18.7695C25.3393 18.9315 24.9202 19.0149 24.4969 19.0149Z" fill="#FFD62A"/>
<path d="M22.6729 15.7919V14.3379H21.2729V15.7919C21.273 16.2745 21.3814 16.7509 21.5902 17.186C21.799 17.6211 22.1028 18.0037 22.4792 18.3057C22.8557 18.6077 23.2952 18.8212 23.7652 18.9307C24.2352 19.0401 24.7238 19.0425 25.1949 18.9379C24.4796 18.7783 23.8399 18.3797 23.3814 17.8078C22.923 17.2359 22.6731 16.5249 22.6729 15.7919Z" fill="#D9B311"/>
<path d="M30.9432 19.0149C30.52 19.0149 30.1008 18.9315 29.7098 18.7695C29.3188 18.6076 28.9635 18.3702 28.6642 18.0709C28.3649 17.7716 28.1275 17.4163 27.9655 17.0253C27.8036 16.6342 27.7202 16.2151 27.7202 15.7919V14.3379H34.1662V15.7919C34.1662 16.2151 34.0828 16.6342 33.9209 17.0253C33.7589 17.4163 33.5215 17.7716 33.2222 18.0709C32.9229 18.3702 32.5676 18.6076 32.1766 18.7695C31.7856 18.9315 31.3665 19.0149 30.9432 19.0149Z" fill="#59BB05"/>
<path d="M29.1139 15.7919V14.3379H27.7139V15.7919C27.7139 16.2745 27.8223 16.7509 28.0311 17.186C28.2399 17.6211 28.5437 18.0037 28.9202 18.3057C29.2966 18.6077 29.7361 18.8212 30.2061 18.9307C30.6762 19.0401 31.1648 19.0425 31.6359 18.9379C30.9205 18.7783 30.2808 18.3797 29.8224 17.8078C29.3639 17.2359 29.114 16.5249 29.1139 15.7919Z" fill="#428E01"/>
<path d="M11.3731 8.07652C11.2342 8.07625 11.1011 8.02096 11.0029 7.92275C10.9047 7.82454 10.8494 7.69141 10.8491 7.55252V3.56551C10.8491 3.42641 10.9044 3.293 11.0027 3.19464C11.1011 3.09627 11.2345 3.04102 11.3736 3.04102C11.5127 3.04102 11.6461 3.09627 11.7445 3.19464C11.8429 3.293 11.8981 3.42641 11.8981 3.56551V7.55151C11.8982 7.62049 11.8848 7.68882 11.8584 7.75258C11.8321 7.81633 11.7934 7.87426 11.7446 7.92304C11.6959 7.97182 11.6379 8.01048 11.5742 8.03682C11.5104 8.06316 11.4421 8.07665 11.3731 8.07652Z" fill="#F2F2F2"/>
<path d="M24.7291 8.07652C24.5901 8.07652 24.4568 8.02131 24.3586 7.92304C24.2603 7.82477 24.2051 7.69149 24.2051 7.55252V3.56551C24.2051 3.42641 24.2603 3.293 24.3587 3.19464C24.4571 3.09627 24.5905 3.04102 24.7296 3.04102C24.8687 3.04102 25.0021 3.09627 25.1005 3.19464C25.1988 3.293 25.2541 3.42641 25.2541 3.56551V7.55151C25.2541 7.69075 25.1988 7.82429 25.1003 7.92274C25.0019 8.0212 24.8683 8.07652 24.7291 8.07652Z" fill="#F2F2F2"/>
<path d="M25.9632 5.12867e-07H9.84121C9.58262 5.12867e-07 9.33463 0.102723 9.15178 0.285571C8.96893 0.468419 8.86621 0.716414 8.86621 0.975001V4.175C8.86621 4.43359 8.96893 4.68158 9.15178 4.86443C9.33463 5.04728 9.58262 5.15 9.84121 5.15H25.9642C26.2228 5.15 26.4708 5.04728 26.6536 4.86443C26.8365 4.68158 26.9392 4.43359 26.9392 4.175V0.975001C26.9392 0.846878 26.914 0.720011 26.8649 0.601653C26.8158 0.483295 26.7439 0.375768 26.6533 0.285218C26.5626 0.194667 26.455 0.12287 26.3366 0.0739308C26.2182 0.0249913 26.0913 -0.000130895 25.9632 5.12867e-07Z" fill="#50AA03"/>
<path d="M27.4579 6.29395H8.34594C8.22972 6.29395 8.11464 6.31684 8.00726 6.36131C7.89989 6.40579 7.80233 6.47097 7.72015 6.55315C7.63797 6.63533 7.57278 6.7329 7.52831 6.84027C7.48383 6.94764 7.46094 7.06273 7.46094 7.17895V9.79395H28.3439V7.17895C28.3439 7.06273 28.321 6.94764 28.2766 6.84027C28.2321 6.7329 28.1669 6.63533 28.0847 6.55315C28.0026 6.47097 27.905 6.40579 27.7976 6.36131C27.6902 6.31684 27.5752 6.29395 27.4589 6.29395H27.4579Z" fill="#50AA03"/>
<path d="M8.38192 14.3417H1.94092L6.69192 8.34171C6.81259 8.23431 6.95371 8.15237 7.10682 8.10082C7.25992 8.04927 7.42185 8.02916 7.58292 8.04171H11.3829L8.38192 14.3417Z" fill="#50AA03"/>
<path d="M8.97706 8.04171H7.57706C7.416 8.02916 7.25406 8.04927 7.10096 8.10082C6.94785 8.15237 6.80673 8.23431 6.68606 8.34171L1.93506 14.3417H3.33506L8.08606 8.34171C8.20673 8.23431 8.34785 8.15237 8.50095 8.10082C8.65406 8.04927 8.816 8.02916 8.97706 8.04171Z" fill="#4B9D04"/>
<path d="M14.8278 14.342H8.38184L11.3728 8.04199H15.8248L14.8278 14.342Z" fill="#FCCE0D"/>
<path d="M11.3738 8.04199L8.38281 14.342H9.78281L12.7738 8.04199H11.3738Z" fill="#D9B311"/>
<path d="M21.2771 14.342H14.8311L15.8311 8.04199H20.2771L21.2771 14.342Z" fill="#50AA03"/>
<path d="M15.8252 8.04199L14.8252 14.342H16.2252L17.2252 8.04199H15.8252Z" fill="#4B9D04"/>
<path d="M34.166 14.3417H27.72L24.729 8.04171H28.529C28.6901 8.02916 28.852 8.04927 29.0051 8.10082C29.1582 8.15237 29.2993 8.23431 29.42 8.34171L34.166 14.3417Z" fill="#50AA03"/>
<path d="M24.729 8.04199L27.72 14.342H29.12L26.129 8.04199H24.729Z" fill="#4B9D04"/>
<path d="M27.7209 14.342H21.2749L20.2749 8.04199H24.7269L27.7209 14.342Z" fill="#FCCE0D"/>
<path d="M20.2769 8.04199L21.2769 14.342H22.6768L21.6768 8.04199H20.2769Z" fill="#D9B311"/>
<path d="M27.9331 32.7314H7.87207C10.834 34.7336 14.3274 35.8035 17.9026 35.8035C21.4777 35.8035 24.9711 34.7336 27.9331 32.7314Z" fill="#D1D1D1"/>
</svg>
